<svg width="159" height="27" viewBox="0 0 159 27" fill="none" xmlns="http://www.w3.org/2000/svg">
<path d="M0.0859375 2H6.34375L12.9531 18.125H13.2344L19.8437 2H26.1016V26H21.1797V10.3789H20.9805L14.7695 25.8828H11.418L5.20703 10.3203H5.00781V26H0.0859375V2ZM32.6813 26.3398C31.5329 26.3398 30.5094 26.1406 29.611 25.7422C28.7125 25.3359 28.0016 24.7383 27.4782 23.9492C26.9625 23.1523 26.7047 22.1602 26.7047 20.9727C26.7047 19.9727 26.8883 19.1328 27.2555 18.4531C27.6227 17.7734 28.1227 17.2266 28.7555 16.8125C29.3883 16.3984 30.1071 16.0859 30.9118 15.875C31.7243 15.6641 32.5758 15.5156 33.4664 15.4297C34.5133 15.3203 35.3571 15.2187 35.9977 15.125C36.6383 15.0234 37.1032 14.875 37.3922 14.6797C37.6813 14.4844 37.8258 14.1953 37.8258 13.8125V13.7422C37.8258 13 37.5914 12.4258 37.1227 12.0195C36.6618 11.6133 36.0055 11.4102 35.1539 11.4102C34.2555 11.4102 33.5407 11.6094 33.0094 12.0078C32.4782 12.3984 32.1266 12.8906 31.9547 13.4844L27.3375 13.1094C27.5719 12.0156 28.0329 11.0703 28.7204 10.2734C29.4079 9.46875 30.2946 8.85156 31.3805 8.42187C32.4743 7.98437 33.7399 7.76563 35.1774 7.76563C36.1774 7.76563 37.1344 7.88281 38.0485 8.11719C38.9704 8.35156 39.7868 8.71484 40.4977 9.20703C41.2164 9.69922 41.7829 10.332 42.1969 11.1055C42.611 11.8711 42.818 12.7891 42.818 13.8594V26H38.0836V23.5039H37.943C37.6539 24.0664 37.2672 24.5625 36.7829 24.9922C36.2985 25.4141 35.7164 25.7461 35.0368 25.9883C34.3571 26.2227 33.5719 26.3398 32.6813 26.3398ZM34.111 22.8945C34.8454 22.8945 35.4938 22.75 36.0563 22.4609C36.6188 22.1641 37.0602 21.7656 37.3805 21.2656C37.7008 20.7656 37.861 20.1992 37.861 19.5664V17.6563C37.7047 17.7578 37.4899 17.8516 37.2164 17.9375C36.9508 18.0156 36.65 18.0898 36.3141 18.1602C35.9782 18.2227 35.6422 18.2812 35.3063 18.3359C34.9704 18.3828 34.6657 18.4258 34.3922 18.4648C33.8063 18.5508 33.2946 18.6875 32.8571 18.875C32.4196 19.0625 32.0797 19.3164 31.8375 19.6367C31.5954 19.9492 31.4743 20.3398 31.4743 20.8086C31.4743 21.4883 31.7204 22.0078 32.2125 22.3672C32.7125 22.7187 33.3454 22.8945 34.111 22.8945ZM53.7307 8V11.75H42.6214V8H53.7307ZM45.1643 26V6.69922C45.1643 5.39453 45.4182 4.3125 45.9261 3.45312C46.4417 2.59375 47.1448 1.94922 48.0354 1.51953C48.9261 1.08984 49.9378 0.874998 51.0706 0.874998C51.8362 0.874998 52.5354 0.933593 53.1682 1.05078C53.8089 1.16797 54.2854 1.27344 54.5979 1.36719L53.7073 5.11719C53.512 5.05469 53.2698 4.99609 52.9807 4.9414C52.6995 4.88672 52.4104 4.85938 52.1136 4.85938C51.3792 4.85938 50.8675 5.03125 50.5784 5.375C50.2893 5.71094 50.1448 6.18359 50.1448 6.79297V26H45.1643ZM57.6913 26L52.7929 8H57.8437L60.6327 20.0937H60.7968L63.703 8H68.6601L71.6132 20.0234H71.7655L74.5077 8H79.5468L74.6601 26H69.3749L66.2812 14.6797H66.0585L62.9648 26H57.6913ZM79.6636 26V2H84.6558V11.0234H84.8082C85.0269 10.5391 85.3433 10.0469 85.7574 9.54687C86.1793 9.03906 86.7261 8.61719 87.398 8.28125C88.0777 7.9375 88.9214 7.76563 89.9293 7.76563C91.2418 7.76563 92.4527 8.10938 93.5621 8.79688C94.6714 9.47656 95.5582 10.5039 96.2222 11.8789C96.8863 13.2461 97.2183 14.9609 97.2183 17.0234C97.2183 19.0312 96.8941 20.7266 96.2457 22.1094C95.605 23.4844 94.73 24.5273 93.6207 25.2383C92.5191 25.9414 91.2847 26.293 89.9175 26.293C88.9488 26.293 88.1246 26.1328 87.4449 25.8125C86.773 25.4922 86.2222 25.0898 85.7925 24.6055C85.3629 24.1133 85.0347 23.6172 84.8082 23.1172H84.5855V26H79.6636ZM84.5504 17C84.5504 18.0703 84.6988 19.0039 84.9957 19.8008C85.2925 20.5977 85.7222 21.2187 86.2847 21.6641C86.8472 22.1016 87.5308 22.3203 88.3355 22.3203C89.148 22.3203 89.8355 22.0977 90.398 21.6523C90.9605 21.1992 91.3863 20.5742 91.6754 19.7773C91.9722 18.9727 92.1207 18.0469 92.1207 17C92.1207 15.9609 91.9761 15.0469 91.6871 14.2578C91.398 13.4687 90.9722 12.8516 90.4097 12.4062C89.8472 11.9609 89.1558 11.7383 88.3355 11.7383C87.523 11.7383 86.8355 11.9531 86.273 12.3828C85.7183 12.8125 85.2925 13.4219 84.9957 14.2109C84.6988 15 84.5504 15.9297 84.5504 17ZM102.902 15.5938V26H97.9094V2H102.761V11.1758H102.972C103.378 10.1133 104.034 9.28125 104.941 8.67969C105.847 8.07031 106.984 7.76563 108.351 7.76563C109.601 7.76563 110.691 8.03906 111.62 8.58594C112.558 9.125 113.284 9.90234 113.8 10.918C114.323 11.9258 114.581 13.1328 114.573 14.5391V26H109.581V15.4297C109.589 14.3203 109.308 13.457 108.738 12.8398C108.175 12.2227 107.386 11.9141 106.37 11.9141C105.691 11.9141 105.089 12.0586 104.566 12.3477C104.05 12.6367 103.644 13.0586 103.347 13.6133C103.058 14.1602 102.909 14.8203 102.902 15.5938ZM123.775 18.3636V19.9545H119.176V18.3636H123.775ZM120.22 16.5341H122.338V23.6534C122.338 23.849 122.368 24.0014 122.427 24.1108C122.487 24.2169 122.57 24.2914 122.676 24.3345C122.785 24.3776 122.911 24.3991 123.054 24.3991C123.153 24.3991 123.253 24.3909 123.352 24.3743C123.451 24.3544 123.528 24.3395 123.581 24.3295L123.914 25.9055C123.808 25.9387 123.659 25.9768 123.466 26.0199C123.274 26.0663 123.04 26.0945 122.765 26.1044C122.255 26.1243 121.808 26.0563 121.423 25.9006C121.042 25.7448 120.745 25.5028 120.533 25.1747C120.321 24.8466 120.217 24.4323 120.22 23.9318V16.5341ZM124.034 26V18.3636H126.088V19.696H126.167C126.306 19.2221 126.54 18.8641 126.868 18.6222C127.196 18.3769 127.574 18.2543 128.002 18.2543C128.108 18.2543 128.222 18.2609 128.345 18.2741C128.467 18.2874 128.575 18.3056 128.668 18.3288V20.2081C128.568 20.1783 128.431 20.1518 128.255 20.1286C128.079 20.1054 127.919 20.0938 127.773 20.0938C127.461 20.0938 127.183 20.1617 126.938 20.2976C126.696 20.4302 126.503 20.6158 126.361 20.8544C126.222 21.093 126.152 21.3681 126.152 21.6797V26H124.034ZM130.602 26.1442C130.114 26.1442 129.68 26.0597 129.299 25.8906C128.918 25.7183 128.616 25.4647 128.394 25.13C128.175 24.7919 128.066 24.371 128.066 23.8672C128.066 23.4429 128.144 23.0866 128.3 22.7983C128.455 22.5099 128.668 22.2779 128.936 22.1023C129.205 21.9266 129.509 21.794 129.851 21.7045C130.196 21.6151 130.557 21.5521 130.935 21.5156C131.379 21.4692 131.737 21.4261 132.009 21.3864C132.28 21.3433 132.478 21.2803 132.6 21.1974C132.723 21.1146 132.784 20.992 132.784 20.8295V20.7997C132.784 20.4848 132.685 20.2412 132.486 20.0689C132.29 19.8965 132.012 19.8104 131.651 19.8104C131.269 19.8104 130.966 19.8949 130.741 20.0639C130.515 20.2296 130.366 20.4384 130.293 20.6903L128.335 20.5312C128.434 20.0672 128.629 19.6662 128.921 19.3281C129.213 18.9867 129.589 18.7249 130.05 18.5426C130.514 18.357 131.051 18.2642 131.661 18.2642C132.085 18.2642 132.491 18.3139 132.879 18.4134C133.27 18.5128 133.616 18.6669 133.918 18.8757C134.223 19.0845 134.463 19.353 134.638 19.6811C134.814 20.0059 134.902 20.3954 134.902 20.8494V26H132.893V24.9411H132.834C132.711 25.1797 132.547 25.3902 132.342 25.5724C132.136 25.7514 131.889 25.8923 131.601 25.995C131.312 26.0945 130.979 26.1442 130.602 26.1442ZM131.208 24.6825C131.52 24.6825 131.795 24.6212 132.033 24.4986C132.272 24.3726 132.459 24.2036 132.595 23.9915C132.731 23.7794 132.799 23.5391 132.799 23.2706V22.4602C132.733 22.5033 132.642 22.5431 132.526 22.5795C132.413 22.6127 132.285 22.6442 132.143 22.674C132 22.7005 131.858 22.7254 131.715 22.7486C131.573 22.7685 131.443 22.7867 131.327 22.8033C131.079 22.8397 130.862 22.8977 130.676 22.9773C130.491 23.0568 130.346 23.1645 130.244 23.3004C130.141 23.433 130.089 23.5987 130.089 23.7976C130.089 24.0859 130.194 24.3063 130.403 24.4588C130.615 24.608 130.883 24.6825 131.208 24.6825ZM142.271 18.3636L139.601 26H137.215L134.545 18.3636H136.782L138.368 23.8274H138.448L140.029 18.3636H142.271ZM142.235 26V18.3636H144.353V26H142.235ZM143.299 17.3793C142.984 17.3793 142.714 17.2749 142.488 17.0661C142.266 16.8539 142.155 16.6004 142.155 16.3054C142.155 16.0137 142.266 15.7635 142.488 15.5547C142.714 15.3426 142.984 15.2365 143.299 15.2365C143.614 15.2365 143.882 15.3426 144.104 15.5547C144.329 15.7635 144.442 16.0137 144.442 16.3054C144.442 16.6004 144.329 16.8539 144.104 17.0661C143.882 17.2749 143.614 17.3793 143.299 17.3793ZM151.283 20.5412L149.344 20.6605C149.311 20.4948 149.24 20.3456 149.13 20.2131C149.021 20.0772 148.877 19.9695 148.698 19.8899C148.522 19.8071 148.312 19.7656 148.066 19.7656C147.738 19.7656 147.461 19.8352 147.236 19.9744C147.011 20.1103 146.898 20.2926 146.898 20.5213C146.898 20.7036 146.971 20.8577 147.117 20.9837C147.263 21.1096 147.513 21.2107 147.867 21.2869L149.25 21.5653C149.992 21.7178 150.545 21.9631 150.91 22.3011C151.275 22.6392 151.457 23.0833 151.457 23.6335C151.457 24.134 151.309 24.5732 151.014 24.951C150.723 25.3288 150.322 25.6238 149.811 25.8359C149.304 26.0447 148.719 26.1491 148.056 26.1491C147.045 26.1491 146.24 25.9387 145.64 25.5178C145.044 25.0935 144.694 24.5168 144.591 23.7876L146.674 23.6783C146.737 23.9865 146.89 24.2218 147.132 24.3842C147.374 24.5433 147.683 24.6229 148.061 24.6229C148.433 24.6229 148.731 24.5516 148.956 24.4091C149.185 24.2633 149.301 24.076 149.304 23.8473C149.301 23.6551 149.22 23.4976 149.061 23.375C148.902 23.2491 148.656 23.1529 148.325 23.0866L147.002 22.8232C146.257 22.674 145.701 22.4155 145.337 22.0476C144.976 21.6797 144.795 21.2107 144.795 20.6406C144.795 20.1501 144.928 19.7275 145.193 19.3729C145.461 19.0182 145.837 18.7448 146.321 18.5526C146.808 18.3603 147.379 18.2642 148.032 18.2642C148.996 18.2642 149.755 18.468 150.308 18.8757C150.865 19.2834 151.19 19.8385 151.283 20.5412ZM151.651 26V24.4489L155.275 21.093C155.583 20.7947 155.842 20.5263 156.051 20.2876C156.263 20.049 156.423 19.8153 156.533 19.5866C156.642 19.3546 156.697 19.1044 156.697 18.8359C156.697 18.5376 156.629 18.2808 156.493 18.0653C156.357 17.8466 156.172 17.6792 155.936 17.5632C155.701 17.4439 155.434 17.3842 155.136 17.3842C154.824 17.3842 154.552 17.4472 154.32 17.5732C154.088 17.6991 153.909 17.8797 153.783 18.1151C153.658 18.3504 153.595 18.6304 153.595 18.9553H151.551C151.551 18.2891 151.702 17.7107 152.004 17.2202C152.305 16.7296 152.728 16.3501 153.271 16.0817C153.815 15.8132 154.441 15.679 155.151 15.679C155.88 15.679 156.515 15.8082 157.055 16.0668C157.598 16.322 158.021 16.6766 158.323 17.1307C158.624 17.5848 158.775 18.1051 158.775 18.6918C158.775 19.0762 158.699 19.4557 158.546 19.8303C158.397 20.2048 158.13 20.6207 157.746 21.0781C157.361 21.5322 156.819 22.0774 156.12 22.7138L154.634 24.1705V24.2401H158.909V26H151.651Z" fill="white"/>
</svg>
