
<svg width="154" height="29" viewBox="0 0 154 29" fill="none" xmlns="http://www.w3.org/2000/svg">
<path d="M0.0859375 2H6.34375L12.9531 18.125H13.2344L19.8437 2H26.1016V26H21.1797V10.3789H20.9805L14.7695 25.8828H11.418L5.20703 10.3203H5.00781V26H0.0859375V2ZM32.6813 26.3398C31.5329 26.3398 30.5094 26.1406 29.611 25.7422C28.7125 25.3359 28.0016 24.7383 27.4782 23.9492C26.9625 23.1523 26.7047 22.1602 26.7047 20.9727C26.7047 19.9727 26.8883 19.1328 27.2555 18.4531C27.6227 17.7734 28.1227 17.2266 28.7555 16.8125C29.3883 16.3984 30.1071 16.0859 30.9118 15.875C31.7243 15.6641 32.5758 15.5156 33.4664 15.4297C34.5133 15.3203 35.3571 15.2187 35.9977 15.125C36.6383 15.0234 37.1032 14.875 37.3922 14.6797C37.6813 14.4844 37.8258 14.1953 37.8258 13.8125V13.7422C37.8258 13 37.5914 12.4258 37.1227 12.0195C36.6618 11.6133 36.0055 11.4102 35.1539 11.4102C34.2555 11.4102 33.5407 11.6094 33.0094 12.0078C32.4782 12.3984 32.1266 12.8906 31.9547 13.4844L27.3375 13.1094C27.5719 12.0156 28.0329 11.0703 28.7204 10.2734C29.4079 9.46875 30.2946 8.85156 31.3805 8.42187C32.4743 7.98437 33.7399 7.76563 35.1774 7.76563C36.1774 7.76563 37.1344 7.88281 38.0485 8.11719C38.9704 8.35156 39.7868 8.71484 40.4977 9.20703C41.2164 9.69922 41.7829 10.332 42.1969 11.1055C42.611 11.8711 42.818 12.7891 42.818 13.8594V26H38.0836V23.5039H37.943C37.6539 24.0664 37.2672 24.5625 36.7829 24.9922C36.2985 25.4141 35.7164 25.7461 35.0368 25.9883C34.3571 26.2227 33.5719 26.3398 32.6813 26.3398ZM34.111 22.8945C34.8454 22.8945 35.4938 22.75 36.0563 22.4609C36.6188 22.1641 37.0602 21.7656 37.3805 21.2656C37.7008 20.7656 37.861 20.1992 37.861 19.5664V17.6563C37.7047 17.7578 37.4899 17.8516 37.2164 17.9375C36.9508 18.0156 36.65 18.0898 36.3141 18.1602C35.9782 18.2227 35.6422 18.2812 35.3063 18.3359C34.9704 18.3828 34.6657 18.4258 34.3922 18.4648C33.8063 18.5508 33.2946 18.6875 32.8571 18.875C32.4196 19.0625 32.0797 19.3164 31.8375 19.6367C31.5954 19.9492 31.4743 20.3398 31.4743 20.8086C31.4743 21.4883 31.7204 22.0078 32.2125 22.3672C32.7125 22.7187 33.3454 22.8945 34.111 22.8945ZM53.7307 8V11.75H42.6214V8H53.7307ZM45.1643 26V6.69922C45.1643 5.39453 45.4182 4.3125 45.9261 3.45312C46.4417 2.59375 47.1448 1.94922 48.0354 1.51953C48.9261 1.08984 49.9378 0.874998 51.0706 0.874998C51.8362 0.874998 52.5354 0.933593 53.1682 1.05078C53.8089 1.16797 54.2854 1.27344 54.5979 1.36719L53.7073 5.11719C53.512 5.05469 53.2698 4.99609 52.9807 4.9414C52.6995 4.88672 52.4104 4.85938 52.1136 4.85938C51.3792 4.85938 50.8675 5.03125 50.5784 5.375C50.2893 5.71094 50.1448 6.18359 50.1448 6.79297V26H45.1643ZM57.6913 26L52.7929 8H57.8437L60.6327 20.0937H60.7968L63.703 8H68.6601L71.6132 20.0234H71.7655L74.5077 8H79.5468L74.6601 26H69.3749L66.2812 14.6797H66.0585L62.9648 26H57.6913ZM79.6636 26V2H84.6558V11.0234H84.8082C85.0269 10.5391 85.3433 10.0469 85.7574 9.54687C86.1793 9.03906 86.7261 8.61719 87.398 8.28125C88.0777 7.9375 88.9214 7.76563 89.9293 7.76563C91.2418 7.76563 92.4527 8.10938 93.5621 8.79688C94.6714 9.47656 95.5582 10.5039 96.2222 11.8789C96.8863 13.2461 97.2183 14.9609 97.2183 17.0234C97.2183 19.0312 96.8941 20.7266 96.2457 22.1094C95.605 23.4844 94.73 24.5273 93.6207 25.2383C92.5191 25.9414 91.2847 26.293 89.9175 26.293C88.9488 26.293 88.1246 26.1328 87.4449 25.8125C86.773 25.4922 86.2222 25.0898 85.7925 24.6055C85.3629 24.1133 85.0347 23.6172 84.8082 23.1172H84.5855V26H79.6636ZM84.5504 17C84.5504 18.0703 84.6988 19.0039 84.9957 19.8008C85.2925 20.5977 85.7222 21.2187 86.2847 21.6641C86.8472 22.1016 87.5308 22.3203 88.3355 22.3203C89.148 22.3203 89.8355 22.0977 90.398 21.6523C90.9605 21.1992 91.3863 20.5742 91.6754 19.7773C91.9722 18.9727 92.1207 18.0469 92.1207 17C92.1207 15.9609 91.9761 15.0469 91.6871 14.2578C91.398 13.4687 90.9722 12.8516 90.4097 12.4062C89.8472 11.9609 89.1558 11.7383 88.3355 11.7383C87.523 11.7383 86.8355 11.9531 86.273 12.3828C85.7183 12.8125 85.2925 13.4219 84.9957 14.2109C84.6988 15 84.5504 15.9297 84.5504 17ZM102.902 15.5938V26H97.9094V2H102.761V11.1758H102.972C103.378 10.1133 104.034 9.28125 104.941 8.67969C105.847 8.07031 106.984 7.76563 108.351 7.76563C109.601 7.76563 110.691 8.03906 111.62 8.58594C112.558 9.125 113.284 9.90234 113.8 10.918C114.323 11.9258 114.581 13.1328 114.573 14.5391V26H109.581V15.4297C109.589 14.3203 109.308 13.457 108.738 12.8398C108.175 12.2227 107.386 11.9141 106.37 11.9141C105.691 11.9141 105.089 12.0586 104.566 12.3477C104.05 12.6367 103.644 13.0586 103.347 13.6133C103.058 14.1602 102.909 14.8203 102.902 15.5938ZM119.713 26V18.3636H121.731V19.7109H121.821C121.98 19.2635 122.245 18.9105 122.616 18.652C122.987 18.3935 123.432 18.2642 123.949 18.2642C124.472 18.2642 124.918 18.3951 125.286 18.657C125.654 18.9155 125.899 19.2668 126.022 19.7109H126.101C126.257 19.2734 126.539 18.9238 126.946 18.6619C127.357 18.3968 127.843 18.2642 128.403 18.2642C129.116 18.2642 129.694 18.4912 130.138 18.9453C130.586 19.3961 130.809 20.0357 130.809 20.8643V26H128.696V21.282C128.696 20.8577 128.584 20.5395 128.358 20.3274C128.133 20.1153 127.851 20.0092 127.513 20.0092C127.129 20.0092 126.829 20.1319 126.613 20.3771C126.398 20.6191 126.29 20.9389 126.29 21.3366V26H124.237V21.2372C124.237 20.8627 124.129 20.5644 123.914 20.3423C123.702 20.1203 123.422 20.0092 123.074 20.0092C122.838 20.0092 122.626 20.0689 122.437 20.1882C122.252 20.3042 122.104 20.4683 121.995 20.6804C121.885 20.8892 121.831 21.1345 121.831 21.4162V26H119.713ZM131.362 26V18.3636H133.48V26H131.362ZM132.426 17.3793C132.111 17.3793 131.841 17.2749 131.616 17.0661C131.394 16.8539 131.283 16.6004 131.283 16.3054C131.283 16.0137 131.394 15.7635 131.616 15.5547C131.841 15.3426 132.111 15.2365 132.426 15.2365C132.741 15.2365 133.01 15.3426 133.232 15.5547C133.457 15.7635 133.57 16.0137 133.57 16.3054C133.57 16.6004 133.457 16.8539 133.232 17.0661C133.01 17.2749 132.741 17.3793 132.426 17.3793ZM135.827 18.3636L137.229 21.0334L138.665 18.3636H140.838L138.626 22.1818L140.898 26H138.735L137.229 23.3601L135.747 26H133.56L135.827 22.1818L133.639 18.3636H135.827Z" fill="white"/>
</svg>
